<?xml version="1.0" encoding="UTF-8" standalone="no"?>
<!-- Generator: Adobe Illustrator 19.0.0, SVG Export Plug-In . SVG Version: 6.00 Build 0)  -->

<svg
   xmlns:dc="http://purl.org/dc/elements/1.1/"
   xmlns:cc="http://creativecommons.org/ns#"
   xmlns:rdf="http://www.w3.org/1999/02/22-rdf-syntax-ns#"
   xmlns:svg="http://www.w3.org/2000/svg"
   xmlns="http://www.w3.org/2000/svg"
   xmlns:sodipodi="http://sodipodi.sourceforge.net/DTD/sodipodi-0.dtd"
   xmlns:inkscape="http://www.inkscape.org/namespaces/inkscape"
   version="1.1"
   id="Layer_1"
   x="0px"
   y="0px"
   viewBox="0 0 512 512"
   style="enable-background:new 0 0 512 512;"
   xml:space="preserve"
   sodipodi:docname="extension.svg"
   inkscape:export-filename="/home/denys/Downloads/extension-48.png"
   inkscape:export-xdpi="9"
   inkscape:export-ydpi="9"
   inkscape:version="0.92.4 5da689c313, 2019-01-14"><metadata
   id="metadata73"><rdf:RDF><cc:Work
       rdf:about=""><dc:format>image/svg+xml</dc:format><dc:type
         rdf:resource="http://purl.org/dc/dcmitype/StillImage" /><dc:title></dc:title></cc:Work></rdf:RDF></metadata><defs
   id="defs71" /><sodipodi:namedview
   pagecolor="#ffffff"
   bordercolor="#666666"
   borderopacity="1"
   objecttolerance="10"
   gridtolerance="10"
   guidetolerance="10"
   inkscape:pageopacity="0"
   inkscape:pageshadow="2"
   inkscape:window-width="2552"
   inkscape:window-height="883"
   id="namedview69"
   showgrid="false"
   inkscape:zoom="0.32593203"
   inkscape:cx="-894.81538"
   inkscape:cy="273.97454"
   inkscape:window-x="0"
   inkscape:window-y="26"
   inkscape:window-maximized="0"
   inkscape:current-layer="Layer_1" />




<g
   id="g30"
   transform="translate(-74,88)">
	<g
   id="g28">
		<path
   d="m 235.45,293.193 -54.653,-46.504 c -7.022,-5.976 -17.559,-5.128 -23.535,1.896 -5.976,7.022 -5.127,17.559 1.896,23.535 l 39.709,33.789 -39.709,33.789 c -7.023,5.976 -7.871,16.512 -1.896,23.535 5.975,7.022 16.512,7.871 23.535,1.896 l 54.653,-46.504 c 7.83,-6.663 7.83,-18.771 0,-25.432 z"
   id="path26"
   inkscape:connector-curvature="0" />
	</g>
</g>
<g
   id="g36"
   transform="translate(-74,88)">
	<g
   id="g34">
		<path
   d="m 342.022,335.716 h -65.954 c -9.22,0 -16.696,7.475 -16.696,16.696 0,9.221 7.475,16.696 16.696,16.696 h 65.954 c 9.22,0 16.696,-7.475 16.696,-16.696 0,-9.221 -7.476,-16.696 -16.696,-16.696 z"
   id="path32"
   inkscape:connector-curvature="0" />
	</g>
</g>
<g
   id="g38">
</g>
<g
   id="g40">
</g>
<g
   id="g42">
</g>
<g
   id="g44">
</g>
<g
   id="g46">
</g>
<g
   id="g48">
</g>
<g
   id="g50">
</g>
<g
   id="g52">
</g>
<g
   id="g54">
</g>
<g
   id="g56">
</g>
<g
   id="g58">
</g>
<g
   id="g60">
</g>
<g
   id="g62">
</g>
<g
   id="g64">
</g>
<g
   id="g66">
</g>
<g
   id="g4805"
   transform="matrix(0.58620291,-0.36717561,0.36717561,0.58620291,59.721311,167.54429)"
   style="fill:#0085ff;fill-opacity:1;stroke-width:1.32625139"><g
     id="g4706"
     style="fill:#0085ff;fill-opacity:1;stroke-width:1.32625139">
	<path
   id="path4684"
   d="m 296.642,252.267 c -9.408,-27.912 -39.663,-42.913 -67.575,-33.504 -26.161,8.818 -41.268,36.142 -34.825,62.987 19.2,66.752 89.429,126.656 153.749,177.557 4.619,3.658 11.328,2.88 14.987,-1.739 3.658,-4.619 2.88,-11.328 -1.739,-14.987 C 299.5,393.728 232.194,336.533 214.743,275.861 c -4.884,-16.996 4.935,-34.732 21.931,-39.616 16.996,-4.884 34.732,4.935 39.616,21.931 11.648,40.533 69.568,90.624 124.672,134.229 4.619,3.658 11.328,2.88 14.987,-1.739 3.658,-4.619 2.88,-11.328 -1.739,-14.987 C 385.112,352.704 308.056,291.733 296.642,252.267 Z"
   style="fill:#0085ff;fill-opacity:1;stroke-width:1.32625139"
   inkscape:connector-curvature="0" />
	<path
   id="path4686"
   d="m 377.496,224.768 c -23.19,-71.1 -98.323,-111.263 -170.325,-91.051 -73.613,21.122 -116.165,97.921 -95.042,171.534 0.015,0.052 0.03,0.105 0.045,0.157 17.515,60.843 -20.032,77.717 -32,81.429 -5.62,1.767 -8.743,7.756 -6.976,13.376 1.767,5.62 7.756,8.743 13.376,6.976 32.619,-10.197 64.299,-44.501 46.101,-107.691 -17.94,-62.269 17.996,-127.29 80.264,-145.23 0.033,-0.009 0.066,-0.019 0.098,-0.028 61.568,-17.306 125.716,17.587 144.64,78.677 0.252,0.832 0.611,1.628 1.067,2.368 1.109,1.835 3.392,5.696 71.957,61.333 4.571,3.717 11.291,3.025 15.008,-1.547 3.717,-4.571 3.025,-11.291 -1.547,-15.008 -24.917,-20.223 -61.333,-50.282 -66.666,-55.295 z"
   style="fill:#0085ff;fill-opacity:1;stroke-width:1.32625139"
   inkscape:connector-curvature="0" />
	<path
   id="path4688"
   d="m 337.688,240.469 c -14.733,-50.875 -67.83,-80.261 -118.763,-65.728 -50.011,15.44 -79.038,67.48 -65.899,118.144 21.547,98.133 5.44,120.789 -38.763,134.613 -5.62,1.767 -8.743,7.756 -6.976,13.376 1.767,5.62 7.756,8.743 13.376,6.976 61.76,-19.2 75.179,-59.563 53.333,-159.552 -10.613,-39.648 11.825,-80.634 50.944,-93.056 39.638,-11.253 80.922,11.624 92.395,51.2 4.267,14.549 15.595,34.517 102.955,103.659 4.619,3.658 11.328,2.88 14.987,-1.739 3.658,-4.619 2.88,-11.328 -1.739,-14.987 -79.296,-62.719 -92.864,-82.58 -95.85,-92.906 z"
   style="fill:#0085ff;fill-opacity:1;stroke-width:1.32625139"
   inkscape:connector-curvature="0" />
	<path
   id="path4690"
   d="M 367.042,388.949 C 330.946,361.557 270.53,315.733 255.661,264.064 c -1.724,-5.633 -7.689,-8.802 -13.322,-7.077 -5.495,1.682 -8.67,7.415 -7.18,12.965 16.811,58.496 80.768,107.008 118.976,136 7.765,5.591 15.241,11.572 22.4,17.92 4.237,4.093 10.99,3.976 15.083,-0.261 3.993,-4.134 3.993,-10.688 0,-14.821 -7.812,-7.071 -16.017,-13.695 -24.576,-19.841 z"
   style="fill:#0085ff;fill-opacity:1;stroke-width:1.32625139"
   inkscape:connector-curvature="0" />
	<path
   id="path4692"
   d="m 309.314,463.147 c -10.781,-20.001 -30.639,-33.489 -53.205,-36.139 -36.267,0 -41.877,61.653 -42.667,74.005 -0.365,5.879 4.105,10.941 9.984,11.307 h 0.683 c 5.642,0.011 10.317,-4.374 10.667,-10.005 1.344,-21.973 9.749,-53.973 21.333,-53.973 15.808,0 27.029,15.232 36.032,27.456 2.974,4.24 6.231,8.274 9.749,12.075 4.237,4.093 10.99,3.975 15.083,-0.262 3.993,-4.134 3.993,-10.687 0,-14.821 -2.759,-3.045 -5.318,-6.266 -7.659,-9.643 z"
   style="fill:#0085ff;fill-opacity:1;stroke-width:1.32625139"
   inkscape:connector-curvature="0" />
	<path
   id="path4694"
   d="m 212.952,370.432 c -2.005,-5.539 -8.121,-8.404 -13.66,-6.399 -5.21,1.886 -8.109,7.448 -6.67,12.799 9.131,28.523 -8.811,84.501 -35.797,93.269 -5.622,1.76 -8.753,7.744 -6.994,13.366 1.76,5.622 7.744,8.753 13.366,6.994 0.074,-0.023 0.147,-0.047 0.22,-0.072 41.044,-13.226 60.841,-84.522 49.535,-119.957 z"
   style="fill:#0085ff;fill-opacity:1;stroke-width:1.32625139"
   inkscape:connector-curvature="0" />
	<path
   id="path4696"
   d="M 440.728,224.853 C 427.395,220.586 416.92,203.52 404.781,184.042 379.096,142.527 343.874,85.674 245.442,85.674 145.343,85.792 64.226,166.909 64.109,267.008 c 0,5.891 4.776,10.667 10.667,10.667 5.891,0 10.667,-4.776 10.667,-10.667 0.094,-88.327 71.673,-159.906 160,-160 86.549,0 116.864,48.939 141.227,88.277 14.336,23.147 26.709,43.136 47.488,49.877 5.583,1.881 11.633,-1.12 13.514,-6.702 1.881,-5.583 -1.12,-11.633 -6.702,-13.514 -0.073,-0.025 -0.146,-0.048 -0.22,-0.072 z"
   style="fill:#0085ff;fill-opacity:1;stroke-width:1.32625139"
   inkscape:connector-curvature="0" />
	<path
   id="path4698"
   d="m 85.442,352.341 c 5.891,0 10.667,-4.776 10.666,-10.667 0,-1.659 -0.387,-3.295 -1.13,-4.778 -4.552,-8.533 -7.769,-17.713 -9.536,-27.221 0,-5.891 -4.776,-10.667 -10.667,-10.667 -5.891,0 -10.667,4.776 -10.667,10.667 1.712,12.864 5.708,25.319 11.797,36.779 1.81,3.608 5.501,5.887 9.537,5.887 z"
   style="fill:#0085ff;fill-opacity:1;stroke-width:1.32625139"
   inkscape:connector-curvature="0" />
	<path
   id="path4700"
   d="m 79.896,126.784 c 5.03,3.066 11.594,1.475 14.66,-3.555 0.006,-0.01 0.012,-0.019 0.017,-0.029 9.259,-15.275 54.869,-58.859 140.203,-58.859 82.005,0 140.352,41.536 150.869,58.859 3.057,5.037 9.619,6.641 14.656,3.584 5.037,-3.057 6.641,-9.619 3.584,-14.656 v 0 C 389.25,88.021 324.632,43.008 234.776,43.008 c -95.552,0 -146.773,49.899 -158.464,69.141 -3.045,5.032 -1.441,11.579 3.584,14.635 z"
   style="fill:#0085ff;fill-opacity:1;stroke-width:1.32625139"
   inkscape:connector-curvature="0" />
	<path
   id="path4702"
   d="m 143.042,42.069 c 4.885,-2.133 9.024,-4.267 12.949,-6.4 16.043,-8.085 27.584,-13.995 78.784,-13.995 34.571,-1.905 69.149,3.631 101.397,16.235 4.075,1.515 8.171,3.029 12.459,4.501 1.118,0.388 2.293,0.59 3.477,0.597 5.891,0.011 10.675,-4.756 10.686,-10.647 0.008,-4.566 -2.89,-8.63 -7.209,-10.11 -4.139,-1.429 -8.064,-2.88 -11.989,-4.267 C 308.977,4.482 271.888,-1.531 234.776,0.341 c -56.405,0 -70.528,7.253 -88.448,16.448 -3.605,1.856 -7.445,3.819 -11.925,5.824 -5.474,2.176 -8.148,8.378 -5.973,13.852 2.176,5.474 8.378,8.148 13.852,5.973 0.28,-0.111 0.555,-0.234 0.824,-0.369 z"
   style="fill:#0085ff;fill-opacity:1;stroke-width:1.32625139"
   inkscape:connector-curvature="0" />
	<path
   id="path4704"
   d="m 427.266,184.917 c 2.005,5.539 8.121,8.404 13.66,6.399 5.21,-1.886 8.109,-7.448 6.67,-12.799 -6.052,-15.671 -13.559,-30.742 -22.421,-45.013 -3.087,-5.019 -9.658,-6.586 -14.677,-3.499 -5.019,3.087 -6.586,9.658 -3.499,14.677 7.941,12.782 14.724,26.247 20.267,40.235 z"
   style="fill:#0085ff;fill-opacity:1;stroke-width:1.32625139"
   inkscape:connector-curvature="0" />
</g><path
     id="path4708"
     d="m 354.541,461.611 c -2.401,-0.002 -4.731,-0.814 -6.613,-2.304 -64.32,-50.923 -134.485,-110.805 -153.685,-177.557 -6.875,-28.642 10.771,-57.433 39.413,-64.308 26.845,-6.443 54.169,8.664 62.987,34.825 11.349,39.445 88.405,100.437 117.333,123.392 4.731,3.511 5.72,10.192 2.209,14.922 -3.511,4.73 -10.192,5.72 -14.922,2.209 -0.175,-0.13 -0.347,-0.266 -0.514,-0.406 -55.104,-43.605 -113.067,-93.675 -124.693,-134.229 -4.884,-16.99 -22.616,-26.804 -39.605,-21.92 -16.99,4.884 -26.804,22.616 -21.92,39.605 17.451,60.672 84.757,117.867 146.475,166.72 4.619,3.657 5.398,10.366 1.741,14.984 -2.026,2.559 -5.112,4.049 -8.376,4.045 z"
     inkscape:connector-curvature="0"
     style="fill:#0085ff;fill-opacity:1;stroke-width:1.32625139" /><path
     id="path4710"
     d="m 83.309,407.616 c -5.891,-0.011 -10.658,-4.795 -10.647,-10.686 0.008,-4.652 3.031,-8.762 7.469,-10.157 11.925,-3.733 49.472,-20.608 32,-81.429 -21.17,-73.599 21.332,-150.425 94.931,-171.595 0.036,-0.01 0.073,-0.021 0.109,-0.031 72.01,-20.226 147.156,19.94 170.347,91.051 5.312,4.992 41.728,35.072 66.645,55.296 4.458,3.85 4.951,10.586 1.101,15.045 -3.686,4.268 -10.057,4.929 -14.541,1.51 -68.587,-55.659 -70.869,-59.52 -71.979,-61.355 -0.441,-0.738 -0.792,-1.526 -1.045,-2.347 -18.924,-61.101 -83.086,-95.997 -144.661,-78.677 -62.282,17.895 -98.264,82.891 -80.369,145.172 0.002,0.007 0.004,0.015 0.006,0.022 18.176,63.168 -13.483,97.493 -46.123,107.691 -1.049,0.331 -2.143,0.497 -3.243,0.49 z"
     inkscape:connector-curvature="0"
     style="fill:#0085ff;fill-opacity:1;stroke-width:1.32625139" /><path
     id="path4712"
     d="m 117.442,448.341 c -5.891,-0.011 -10.658,-4.795 -10.647,-10.686 0.008,-4.652 3.031,-8.762 7.469,-10.157 44.203,-13.824 60.288,-36.523 38.741,-134.613 -13.128,-50.663 15.895,-102.695 65.899,-118.144 50.934,-14.496 104.011,14.874 118.784,65.728 2.965,10.304 16.512,30.165 95.68,92.843 4.731,3.511 5.72,10.192 2.209,14.922 -3.511,4.731 -10.192,5.72 -14.922,2.209 -0.175,-0.13 -0.347,-0.266 -0.514,-0.406 -87.467,-69.163 -98.795,-89.152 -102.955,-103.659 -11.432,-39.618 -52.765,-62.517 -92.416,-51.2 -39.163,12.432 -61.603,53.486 -50.923,93.163 21.952,100.011 8.533,140.267 -53.333,159.552 -0.996,0.301 -2.031,0.452 -3.072,0.448 z"
     inkscape:connector-curvature="0"
     style="fill:#0085ff;fill-opacity:1;stroke-width:1.32625139" /><path
     id="path4714"
     d="m 384.109,427.008 c -2.831,0.005 -5.548,-1.115 -7.552,-3.115 -7.161,-6.353 -14.637,-12.341 -22.4,-17.941 -38.208,-28.992 -102.165,-77.504 -118.976,-136 -1.724,-5.633 1.444,-11.597 7.077,-13.322 5.633,-1.724 11.597,1.444 13.322,7.077 0.036,0.118 0.07,0.237 0.102,0.356 14.933,51.669 75.264,97.493 111.36,124.885 8.564,6.156 16.776,12.786 24.597,19.861 4.159,4.172 4.149,10.926 -0.024,15.085 -1.993,1.989 -4.691,3.108 -7.506,3.114 z"
     inkscape:connector-curvature="0"
     style="fill:#0085ff;fill-opacity:1;stroke-width:1.32625139" /><path
     id="path4716"
     d="m 224.109,512.341 h -0.683 c -5.879,-0.366 -10.349,-5.428 -9.984,-11.307 0.768,-12.352 6.4,-74.005 42.667,-74.005 22.613,2.629 42.521,16.126 53.333,36.16 2.327,3.382 4.878,6.603 7.637,9.643 4.093,4.237 3.975,10.99 -0.262,15.083 -4.134,3.993 -10.687,3.993 -14.821,0 -3.525,-3.787 -6.782,-7.815 -9.749,-12.053 -9.088,-12.288 -20.309,-27.52 -36.139,-27.52 -11.563,0 -19.989,32 -21.333,53.995 -0.349,5.63 -5.024,10.015 -10.666,10.004 z"
     inkscape:connector-curvature="0"
     style="fill:#0085ff;fill-opacity:1;stroke-width:1.32625139" /><path
     id="path4718"
     d="m 160.109,491.008 c -5.891,0.011 -10.676,-4.755 -10.687,-10.646 -0.009,-4.641 2.984,-8.755 7.402,-10.175 26.965,-8.768 44.8,-64.747 35.797,-93.269 -2.109,-5.501 0.641,-11.669 6.141,-13.778 5.5,-2.109 11.669,0.641 13.778,6.141 0.155,0.404 0.285,0.817 0.39,1.237 11.328,35.435 -8.533,106.667 -49.536,120.064 -1.066,0.312 -2.174,0.456 -3.285,0.426 z"
     inkscape:connector-curvature="0"
     style="fill:#0085ff;fill-opacity:1;stroke-width:1.32625139" /><path
     id="path4720"
     d="m 74.776,277.675 c -5.891,0 -10.667,-4.776 -10.667,-10.667 0.118,-100.099 81.234,-181.216 181.333,-181.333 98.432,0 133.653,56.853 159.36,98.368 12.139,19.563 22.613,36.48 35.947,40.811 5.622,1.76 8.753,7.744 6.994,13.366 -1.759,5.622 -7.744,8.753 -13.366,6.994 -0.074,-0.023 -0.147,-0.047 -0.22,-0.072 -20.779,-6.741 -33.152,-26.731 -47.488,-49.877 -24.363,-39.317 -54.677,-88.256 -141.227,-88.256 -88.327,0.094 -159.906,71.673 -160,160 0,5.89 -4.775,10.666 -10.666,10.666 z"
     inkscape:connector-curvature="0"
     style="fill:#0085ff;fill-opacity:1;stroke-width:1.32625139" /><path
     id="path4722"
     d="m 85.442,352.341 c -4.044,0.008 -7.745,-2.272 -9.557,-5.888 -6.087,-11.459 -10.075,-23.915 -11.776,-36.779 0,-5.891 4.776,-10.667 10.667,-10.667 5.891,0 10.667,4.776 10.667,10.667 1.772,9.507 4.988,18.687 9.536,27.221 2.639,5.267 0.509,11.676 -4.758,14.315 -1.484,0.744 -3.12,1.131 -4.779,1.131 z"
     inkscape:connector-curvature="0"
     style="fill:#0085ff;fill-opacity:1;stroke-width:1.32625139" /><path
     id="path4724"
     d="m 394.776,128.341 c -3.734,0.002 -7.197,-1.948 -9.131,-5.141 -10.496,-17.323 -68.864,-58.859 -150.869,-58.859 -85.333,0 -130.944,43.584 -140.224,58.859 -2.874,5.142 -9.373,6.981 -14.515,4.106 -5.142,-2.874 -6.981,-9.373 -4.106,-14.515 0.126,-0.226 0.261,-0.447 0.403,-0.663 11.669,-19.221 62.891,-69.12 158.443,-69.12 89.856,0 154.475,45.013 169.109,69.141 3.052,5.039 1.44,11.598 -3.599,14.649 -1.663,1.007 -3.568,1.541 -5.511,1.543 z"
     inkscape:connector-curvature="0"
     style="fill:#0085ff;fill-opacity:1;stroke-width:1.32625139" /><path
     id="path4726"
     d="m 352.109,43.008 c -1.183,0.002 -2.358,-0.192 -3.477,-0.576 -4.267,-1.472 -8.405,-3.008 -12.48,-4.501 -32.241,-12.606 -66.81,-18.15 -101.376,-16.256 -51.2,0 -62.741,5.909 -78.677,14.08 -3.925,2.027 -8.085,4.139 -12.949,6.4 -5.396,2.386 -11.705,-0.054 -14.091,-5.451 -2.386,-5.396 0.054,-11.705 5.451,-14.091 4.501,-2.027 8.32,-3.989 11.947,-5.845 17.792,-9.173 31.936,-16.427 88.32,-16.427 37.101,-1.892 74.182,4.099 108.8,17.579 3.925,1.451 7.851,2.923 11.989,4.267 5.609,1.8 8.697,7.807 6.897,13.416 -1.44,4.482 -5.647,7.492 -10.354,7.405 z"
     inkscape:connector-curvature="0"
     style="fill:#0085ff;fill-opacity:1;stroke-width:1.32625139" /><path
     id="path4728"
     d="m 437.442,192.341 c -4.639,-0.003 -8.744,-3.004 -10.155,-7.424 -5.542,-14.016 -12.324,-27.51 -20.267,-40.32 -3.087,-5.019 -1.521,-11.59 3.499,-14.677 5.019,-3.087 11.59,-1.521 14.677,3.499 v 0 c 8.854,14.273 16.353,29.343 22.4,45.013 1.791,5.612 -1.307,11.614 -6.919,13.404 -1.045,0.334 -2.137,0.505 -3.235,0.505 z"
     inkscape:connector-curvature="0"
     style="fill:#0085ff;fill-opacity:1;stroke-width:1.32625139" /><g
     id="g4730"
     style="fill:#0085ff;fill-opacity:1;stroke-width:1.32625139">
</g><g
     id="g4732"
     style="fill:#0085ff;fill-opacity:1;stroke-width:1.32625139">
</g><g
     id="g4734"
     style="fill:#0085ff;fill-opacity:1;stroke-width:1.32625139">
</g><g
     id="g4736"
     style="fill:#0085ff;fill-opacity:1;stroke-width:1.32625139">
</g><g
     id="g4738"
     style="fill:#0085ff;fill-opacity:1;stroke-width:1.32625139">
</g><g
     id="g4740"
     style="fill:#0085ff;fill-opacity:1;stroke-width:1.32625139">
</g><g
     id="g4742"
     style="fill:#0085ff;fill-opacity:1;stroke-width:1.32625139">
</g><g
     id="g4744"
     style="fill:#0085ff;fill-opacity:1;stroke-width:1.32625139">
</g><g
     id="g4746"
     style="fill:#0085ff;fill-opacity:1;stroke-width:1.32625139">
</g><g
     id="g4748"
     style="fill:#0085ff;fill-opacity:1;stroke-width:1.32625139">
</g><g
     id="g4750"
     style="fill:#0085ff;fill-opacity:1;stroke-width:1.32625139">
</g><g
     id="g4752"
     style="fill:#0085ff;fill-opacity:1;stroke-width:1.32625139">
</g><g
     id="g4754"
     style="fill:#0085ff;fill-opacity:1;stroke-width:1.32625139">
</g><g
     id="g4756"
     style="fill:#0085ff;fill-opacity:1;stroke-width:1.32625139">
</g><g
     id="g4758"
     style="fill:#0085ff;fill-opacity:1;stroke-width:1.32625139">
</g></g></svg>