<?xml version="1.0" encoding="UTF-8" standalone="no"?>
<svg
   xmlns:dc="http://purl.org/dc/elements/1.1/"
   xmlns:cc="http://creativecommons.org/ns#"
   xmlns:rdf="http://www.w3.org/1999/02/22-rdf-syntax-ns#"
   xmlns:svg="http://www.w3.org/2000/svg"
   xmlns="http://www.w3.org/2000/svg"
   xmlns:sodipodi="http://sodipodi.sourceforge.net/DTD/sodipodi-0.dtd"
   xmlns:inkscape="http://www.inkscape.org/namespaces/inkscape"
   inkscape:version="1.0 (4035a4fb49, 2020-05-01)"
   inkscape:export-ydpi="9"
   inkscape:export-xdpi="9"
   inkscape:export-filename="/home/denys/Downloads/extension-48.png"
   sodipodi:docname="extension-small.svg"
   xml:space="preserve"
   style="enable-background:new 0 0 512 512;"
   viewBox="0 0 512 512"
   y="0px"
   x="0px"
   id="Layer_1"
   version="1.1"><metadata
   id="metadata73"><rdf:RDF><cc:Work
       rdf:about=""><dc:format>image/svg+xml</dc:format><dc:type
         rdf:resource="http://purl.org/dc/dcmitype/StillImage" /><dc:title /></cc:Work></rdf:RDF></metadata><defs
   id="defs71" /><sodipodi:namedview
   inkscape:document-rotation="0"
   inkscape:current-layer="Layer_1"
   inkscape:window-maximized="0"
   inkscape:window-y="370"
   inkscape:window-x="0"
   inkscape:cy="691.33141"
   inkscape:cx="-6527.8961"
   inkscape:zoom="0.040741504"
   showgrid="false"
   id="namedview69"
   inkscape:window-height="368"
   inkscape:window-width="1916"
   inkscape:pageshadow="2"
   inkscape:pageopacity="0"
   guidetolerance="10"
   gridtolerance="10"
   objecttolerance="10"
   borderopacity="1"
   bordercolor="#666666"
   pagecolor="#ffffff" />




<g
   transform="translate(-74,88)"
   id="g30">
	<g
   id="g28">
		<path
   inkscape:connector-curvature="0"
   id="path26"
   d="m 235.45,293.193 -54.653,-46.504 c -7.022,-5.976 -17.559,-5.128 -23.535,1.896 -5.976,7.022 -5.127,17.559 1.896,23.535 l 39.709,33.789 -39.709,33.789 c -7.023,5.976 -7.871,16.512 -1.896,23.535 5.975,7.022 16.512,7.871 23.535,1.896 l 54.653,-46.504 c 7.83,-6.663 7.83,-18.771 0,-25.432 z" />
	</g>
</g>
<g
   transform="translate(-74,88)"
   id="g36">
	<g
   id="g34">
		<path
   inkscape:connector-curvature="0"
   id="path32"
   d="m 342.022,335.716 h -65.954 c -9.22,0 -16.696,7.475 -16.696,16.696 0,9.221 7.475,16.696 16.696,16.696 h 65.954 c 9.22,0 16.696,-7.475 16.696,-16.696 0,-9.221 -7.476,-16.696 -16.696,-16.696 z" />
	</g>
</g>
<g
   id="g38">
</g>
<g
   id="g40">
</g>
<g
   id="g42">
</g>
<g
   id="g44">
</g>
<g
   id="g46">
</g>
<g
   id="g48">
</g>
<g
   id="g50">
</g>
<g
   id="g52">
</g>
<g
   id="g54">
</g>
<g
   id="g56">
</g>
<g
   id="g58">
</g>
<g
   id="g60">
</g>
<g
   id="g62">
</g>
<g
   id="g64">
</g>
<g
   id="g66">
</g>
<path
   sodipodi:nodetypes="ccsc"
   id="path889"
   d="m 339.9053,373.27727 c -39.16157,-35.50069 -94.23817,-91.73348 -103.6879,-131.47218 -5.36786,-38.41844 9.22704,-81.06759 71.43753,-78.79665 27.58805,1.00708 46.37518,29.72138 119.38771,27.29744"
   style="fill:none;fill-rule:evenodd;stroke:#007eff;stroke-width:15;stroke-linecap:butt;stroke-linejoin:miter;stroke-miterlimit:4;stroke-dasharray:none;stroke-opacity:1" /><path
   sodipodi:nodetypes="csc"
   id="path891"
   d="M 248.80167,347.66237 C 208.62474,302.8231 172.2095,219.33341 200.67829,167.3661 243.27008,89.618489 342.7033,140.18977 395.82419,147.32187"
   style="fill:none;fill-rule:evenodd;stroke:#007eff;stroke-width:15;stroke-linecap:butt;stroke-linejoin:miter;stroke-miterlimit:4;stroke-dasharray:none;stroke-opacity:1" /><path
   sodipodi:nodetypes="cc"
   id="path893"
   d="m 303.14947,234.87775 c 20.4685,16.71298 57.79996,25.16907 132.36161,43.85372"
   style="fill:none;fill-rule:evenodd;stroke:#007eff;stroke-width:15;stroke-linecap:butt;stroke-linejoin:miter;stroke-miterlimit:4;stroke-dasharray:none;stroke-opacity:1" /><path
   sodipodi:nodetypes="cssc"
   id="path895"
   d="m 428.34585,319.19427 c -17.46032,-0.54894 -125.35655,-34.12524 -151.27466,-65.18224 -10.81738,-12.96217 -3.83739,-47.7894 21.44624,-50.15639 21.84782,-2.04534 59.95381,22.55886 142.19477,38.51426"
   style="fill:none;fill-rule:evenodd;stroke:#007eff;stroke-width:15;stroke-linecap:butt;stroke-linejoin:miter;stroke-miterlimit:4;stroke-dasharray:none;stroke-opacity:1" /><path
   style="fill:none;fill-rule:evenodd;stroke:#007eff;stroke-width:15;stroke-linecap:butt;stroke-linejoin:miter;stroke-miterlimit:4;stroke-dasharray:none;stroke-opacity:1"
   d="m 323.24538,313.83543 c 37.34343,27.56645 51.44027,35.30802 95.19941,46.3567"
   id="path855"
   sodipodi:nodetypes="cc" /></svg>
